<svg xmlns="http://www.w3.org/2000/svg" xml:space="preserve" id="Layer_1" x="0" y="0" version="1.1" viewBox="0 0 360 360">
  <style>
    @media (prefers-color-scheme:dark){.in{fill:#265973}.out{fill:#9fb9c6}path{fill:#e5e6b3}}
  </style>
  <path fill="#3372A0" d="M178.3 13.9 38.6 94.5l139.7 11.3zM34.8 104.6v158.8l58.6-11.1zM177.2 109.1 35.7 97.7l60.3 152zM261.3 251.9 180 111 98.7 251.9zM181.7 13.9v91.9l139.7-11.3zM264 249.7l60.3-152-141.5 11.4zM188 343.7l134.1-77.5-57.2-10.8zM325.2 263.4V104.6l-58.6 147.7zM99.5 255.2l80.5 92.5 80.5-92.5zM37.9 266.2 172 343.7l-76.9-88.3z" class="in"/>
  <g opacity=".25">
    <path fill="#FFF" d="M178.3 13.9 38.6 94.5l29.5 2.4zM34.8 104.6v158.8l8.5-1.6zM108.5 228.1 35.7 97.7l60.3 152zM192.9 133.4 180 111 98.7 251.9h18.2zM181.7 13.9v91.9l27.6-2.2zM195.5 131.1l128.8-33.4-141.5 11.4zM188 343.7l94.5-85-17.6-3.3zM282.3 255.2l42.9-150.6-58.6 147.7zM99.5 255.2l80.5 92.5-62-92.3zM37.9 266.2l65.8-.9-8.6-9.9z" class="out"/>
  </g>
  <path fill="#303030" d="M328.4 99.6c0-3.1-1.7-6-4.4-7.6L183.9 11.3c-2.4-1.4-5.4-1.4-7.9 0L35.6 92.9c-2.5 1.5-4.1 4.2-4.1 7.1l-.1 161.8c0 2.8 1.5 5.4 3.9 6.8L176.1 350c2.4 1.4 5.3 1.4 7.7 0l140.8-81.3c2.4-1.4 3.9-4 3.9-6.8l-.1-162.3zm-61.3 151.3 55.8-140.4c.5-1.2 2.3-.9 2.3.4v150.9c0 .8-.7 1.3-1.4 1.2L268 252.5c-.7-.1-1.2-.9-.9-1.6zm-164.9 4.3h155.7c1 0 1.6 1.2.9 2L181 346.6c-.5.6-1.4.6-1.8 0l-77.8-89.4c-.8-.7-.3-2 .8-2zm78.9-142.3L260.2 250c.5.8-.1 1.8-1.1 1.8H100.8c-.9 0-1.5-1-1.1-1.8l79.2-137.2c.5-.7 1.7-.7 2.2.1zm3.6-3.9 137.7-11.1c.9-.1 1.6.8 1.2 1.7l-58.7 147.8c-.4.9-1.7 1-2.2.2l-78.9-136.7c-.5-.9 0-1.9.9-1.9zM95.1 247.3 36.4 99.5c-.3-.8.3-1.7 1.2-1.7L175.3 109c.9.1 1.4 1 1 1.8l-79 136.7c-.5.9-1.8.8-2.2-.2zm86.6-142.8V16c0-.9 1-1.5 1.8-1.1L318 92.6c1 .6.7 2.2-.5 2.3L183 105.7c-.7.1-1.3-.5-1.3-1.2zM178.3 16v88.5c0 .7-.6 1.3-1.3 1.2L42.5 94.8c-1.2-.1-1.5-1.7-.5-2.3l134.5-77.6c.8-.4 1.8.2 1.8 1.1zM92 252.5l-55.8 10.6c-.7.1-1.4-.4-1.4-1.2V111c0-1.3 1.9-1.7 2.3-.4L92.9 251c.3.6-.2 1.4-.9 1.5zm-50.9 13.1 53.3-10.1c.4-.1.9.1 1.1.4l71.7 82.3c.9 1-.3 2.5-1.5 1.9l-125-72.2c-1-.6-.7-2.1.4-2.3zm224.5-10.1 53.3 10.1c1.1.2 1.4 1.7.4 2.2l-125 72.2c-1.2.7-2.4-.8-1.5-1.9l71.7-82.3c.2-.2.6-.4 1.1-.3z"/>
</svg>
